<svg width="73" height="77" viewBox="0 0 73 77" fill="none" xmlns="http://www.w3.org/2000/svg">
<path opacity="0.5" d="M1.16129 19.7325L58.8395 17.6952C59.1039 17.6941 59.2733 17.9747 59.1621 18.2057L48.4958 38.9499L36.5903 25.8062L23.9784 32.2557C23.714 32.2568 23.5709 32.5539 23.7241 32.7838L39.7924 58.4401L33.5477 71.4115C33.4364 71.6426 33.124 71.6591 32.9708 71.4291L0.907056 20.2606C0.777864 20.023 0.920872 19.7259 1.16129 19.7325Z" fill="#00B37E"/>
<path opacity="0.5" d="M24.2247 9.68505L40.206 6.94074C40.4682 6.92424 37.2803 12.6682 37.1565 12.8657L17.6633 43.333C17.5395 43.5304 17.2288 43.5625 17.0906 43.3816L9.64529 32.9275L24.2247 9.68505Z" fill="#5EF4C8"/>
<path d="M17.1278 46.5361L37.0682 27.8458L32.9099 71.9928L17.1278 46.5361Z" fill="#00B37E"/>
</svg>
